<svg width="33" height="33" viewBox="0 0 33 33" fill="none" xmlns="http://www.w3.org/2000/svg">
<path d="M9.9 26.4C8.085 26.4 6.6165 27.885 6.6165 29.7C6.6165 31.515 8.085 33 9.9 33C11.715 33 13.2 31.515 13.2 29.7C13.2 27.885 11.715 26.4 9.9 26.4ZM0 0V3.3H3.3L9.24 15.8235L7.0125 19.866C6.7485 20.328 6.6 20.8725 6.6 21.45C6.6 23.265 8.085 24.75 9.9 24.75H29.7V21.45H10.593C10.362 21.45 10.1805 21.2685 10.1805 21.0375L10.23 20.8395L11.715 18.15H24.0075C25.245 18.15 26.334 17.4735 26.895 16.4505L32.802 5.742C32.934 5.511 33 5.2305 33 4.95C33 4.0425 32.2575 3.3 31.35 3.3H6.9465L5.3955 0H0ZM26.4 26.4C24.585 26.4 23.1165 27.885 23.1165 29.7C23.1165 31.515 24.585 33 26.4 33C28.215 33 29.7 31.515 29.7 29.7C29.7 27.885 28.215 26.4 26.4 26.4Z" fill="#F1F1F1"/>
</svg>
