<svg width="91" height="91" viewBox="0 0 91 91" fill="none" xmlns="http://www.w3.org/2000/svg">
<path d="M45.5 0.0833435C20.43 0.0833435 0.083374 20.43 0.083374 45.5C0.083374 70.57 20.43 90.9167 45.5 90.9167C70.57 90.9167 90.9167 70.57 90.9167 45.5C90.9167 20.43 70.57 0.0833435 45.5 0.0833435ZM45.5 13.7083C53.0392 13.7083 59.125 19.7942 59.125 27.3333C59.125 34.8725 53.0392 40.9583 45.5 40.9583C37.9609 40.9583 31.875 34.8725 31.875 27.3333C31.875 19.7942 37.9609 13.7083 45.5 13.7083ZM45.5 78.2C34.1459 78.2 24.1088 72.3867 18.25 63.5758C18.3863 54.5379 36.4167 49.5875 45.5 49.5875C54.538 49.5875 72.6138 54.5379 72.75 63.5758C66.8913 72.3867 56.8542 78.2 45.5 78.2Z" fill="#181526"/>
</svg>
