<?xml version="1.0" standalone="no"?>
<!DOCTYPE svg PUBLIC "-//W3C//DTD SVG 20010904//EN"
 "http://www.w3.org/TR/2001/REC-SVG-20010904/DTD/svg10.dtd">
<svg version="1.0" xmlns="http://www.w3.org/2000/svg"
 width="621.000000pt" height="270.000000pt" viewBox="0 0 621.000000 270.000000"
 preserveAspectRatio="xMidYMid meet">

<g transform="translate(0.000000,270.000000) scale(0.100000,-0.100000)"
fill="#000000" stroke="none">
<path d="M4310 2315 c0 -12 -15 -15 -75 -15 -68 0 -75 -2 -75 -20 0 -13 -7
-20 -20 -20 -13 0 -20 7 -20 20 0 11 -7 20 -15 20 -8 0 -15 -9 -15 -20 0 -18
-7 -20 -75 -20 -68 0 -75 2 -75 20 0 26 -26 26 -33 0 -5 -18 -14 -19 -128 -19
-227 1 -239 0 -239 -16 0 -9 -9 -15 -24 -15 -45 0 -86 -13 -86 -26 0 -9 -12
-14 -34 -14 -25 0 -35 5 -39 20 -4 16 -14 20 -45 20 -60 0 -102 -11 -102 -26
0 -10 -15 -14 -55 -14 l-55 0 0 -35 c0 -28 -4 -35 -20 -35 -11 0 -20 7 -20 15
0 8 -7 15 -15 15 -8 0 -15 9 -15 20 0 13 -7 20 -20 20 -11 0 -20 -6 -20 -14 0
-18 -44 -26 -136 -26 -59 0 -74 -3 -74 -15 0 -11 -11 -15 -40 -15 -29 0 -40 4
-40 15 0 31 -29 14 -36 -20 -7 -38 -29 -47 -37 -16 -4 17 -18 19 -237 20 -225
1 -232 1 -237 -19 -4 -15 -14 -20 -39 -20 -24 0 -34 5 -34 15 0 8 -7 15 -15
15 -8 0 -15 -7 -15 -15 0 -13 -21 -15 -129 -15 -120 0 -129 1 -134 20 -4 17
-14 20 -56 20 -39 0 -51 4 -51 15 0 8 -9 15 -20 15 -11 0 -20 -7 -20 -15 0 -8
-14 -17 -35 -21 -20 -3 -35 -12 -35 -20 0 -8 -9 -14 -20 -14 -11 0 -20 6 -20
14 0 16 -30 26 -81 26 -57 0 -99 -11 -99 -26 0 -11 -23 -14 -110 -14 -87 0
-110 -3 -110 -14 0 -7 -9 -16 -20 -19 -11 -3 -20 -12 -20 -21 0 -9 -7 -16 -15
-16 -8 0 -15 7 -15 15 0 8 -9 15 -20 15 -13 0 -20 -7 -20 -20 0 -11 -7 -20
-15 -20 -8 0 -15 -7 -15 -15 0 -8 -9 -15 -20 -15 -13 0 -20 -7 -20 -20 0 -11
-7 -20 -15 -20 -8 0 -15 -7 -15 -15 0 -8 -9 -15 -20 -15 -13 0 -20 -7 -20 -20
0 -17 -7 -20 -40 -20 -33 0 -40 -3 -40 -20 0 -16 -7 -20 -35 -20 -24 0 -35 -5
-35 -15 0 -8 -6 -15 -14 -15 -9 0 -17 -15 -21 -40 -4 -25 -12 -40 -21 -40 -9
0 -14 -11 -14 -29 0 -24 -5 -29 -31 -35 -17 -3 -48 -6 -69 -6 -29 0 -39 -4
-43 -20 -3 -12 -14 -20 -26 -20 -12 0 -21 -6 -21 -15 0 -8 -7 -15 -15 -15 -8
0 -15 -9 -15 -20 0 -11 7 -20 15 -20 8 0 15 9 15 20 0 17 7 20 40 20 39 0 40
-1 40 -35 0 -28 -4 -35 -20 -35 -13 0 -20 -7 -20 -20 0 -11 -7 -20 -15 -20 -8
0 -15 6 -15 14 0 8 -4 17 -9 20 -16 10 -71 -6 -71 -20 0 -9 -12 -14 -35 -14
-28 0 -35 -4 -35 -20 0 -16 -7 -20 -35 -20 -37 0 -35 3 -40 -70 -1 -14 -2 -35
-3 -47 -1 -13 -8 -23 -16 -23 -18 0 -29 -61 -21 -111 6 -36 9 -39 40 -39 24 0
34 -5 38 -20 3 -11 12 -20 21 -20 12 0 16 -10 16 -35 l0 -35 90 0 c72 0 90 -3
90 -15 0 -8 14 -17 35 -21 20 -3 35 -12 35 -20 0 -10 13 -14 40 -14 33 0 40
-3 40 -20 0 -17 7 -20 50 -20 38 0 50 -4 50 -15 0 -8 9 -15 20 -15 13 0 20 -7
20 -20 0 -11 7 -23 15 -26 17 -7 20 -31 5 -36 -5 -1 -12 -18 -16 -35 -6 -32
-6 -33 30 -33 26 0 36 -4 36 -16 0 -9 9 -18 20 -21 11 -3 20 -12 20 -20 0 -8
9 -17 20 -20 26 -7 26 -33 0 -33 -11 0 -20 -7 -20 -15 0 -10 10 -15 33 -15 47
0 77 -10 77 -26 0 -9 12 -14 33 -14 62 0 77 -9 77 -46 0 -27 4 -34 20 -34 11
0 20 -7 20 -15 0 -12 13 -15 55 -15 48 0 55 -2 55 -20 0 -13 7 -20 20 -20 13
0 20 -7 20 -20 0 -11 7 -20 15 -20 8 0 15 -7 15 -15 0 -8 -7 -15 -15 -15 -24
0 -18 -27 7 -34 13 -3 78 -6 146 -6 98 0 122 -3 122 -14 0 -10 20 -16 75 -21
54 -5 75 -11 75 -21 0 -11 17 -14 70 -14 63 0 70 2 70 20 0 17 5 18 51 13 45
-5 51 -4 56 16 5 18 13 21 55 21 41 0 51 3 55 20 3 11 12 20 19 20 8 0 14 -9
14 -20 0 -17 7 -20 44 -20 63 0 106 11 106 26 0 11 23 14 110 14 103 0 110 -1
110 -20 0 -17 7 -20 50 -20 38 0 50 -4 50 -15 0 -10 10 -15 26 -15 22 0 25 3
20 22 -3 13 -6 29 -6 36 0 7 -14 12 -35 12 -24 0 -35 5 -35 15 0 10 11 15 35
15 24 0 35 -5 35 -15 0 -11 11 -15 41 -15 40 0 41 -1 36 -28 -3 -15 -3 -39 0
-54 5 -26 9 -28 59 -28 41 0 54 4 54 15 0 10 11 15 35 15 24 0 35 -5 35 -15 0
-8 9 -15 20 -15 11 0 20 7 20 15 0 8 7 15 15 15 8 0 15 -7 15 -15 0 -8 9 -15
20 -15 11 0 20 6 20 14 0 8 17 15 49 19 58 7 91 0 91 -19 0 -11 23 -14 110
-14 91 0 110 3 110 15 0 8 9 15 20 15 11 0 20 -7 20 -15 0 -8 7 -15 15 -15 7
0 18 -8 23 -17 7 -12 24 -17 58 -17 48 -1 49 0 52 32 2 20 9 32 18 32 8 0 14
9 14 20 0 17 7 20 40 20 29 0 40 -4 40 -15 0 -10 10 -15 30 -15 19 0 30 5 30
14 0 11 23 15 108 18 125 4 152 1 152 -18 0 -10 15 -14 55 -14 40 0 55 4 55
14 0 10 18 15 66 18 49 3 69 9 76 21 5 9 18 17 28 17 11 0 20 6 20 14 0 19 54
28 122 20 55 -6 58 -5 58 15 0 18 6 21 40 21 28 0 45 6 57 20 11 12 30 20 50
20 23 0 33 5 33 15 0 11 11 15 36 15 27 0 37 5 41 20 5 18 14 20 74 20 62 0
69 2 69 20 0 18 7 20 75 20 60 0 75 3 75 15 0 8 7 15 16 15 9 0 18 9 21 20 6
23 23 27 23 5 0 -8 9 -15 20 -15 11 0 20 7 20 15 0 8 9 15 20 15 16 0 20 7 20
34 0 30 4 34 31 40 17 3 42 6 55 6 21 0 24 5 24 35 l0 35 -55 0 -55 0 0 55 0
55 -70 0 -69 0 -7 35 c-3 20 -12 35 -20 35 -8 0 -14 7 -14 15 0 8 7 15 16 15
9 0 18 9 21 20 4 16 14 20 53 20 39 0 49 4 53 20 4 15 14 20 42 20 37 0 37 0
31 33 -4 17 -11 33 -16 35 -5 2 -12 18 -16 37 -4 21 -13 35 -25 38 -10 3 -19
12 -19 21 0 9 -7 16 -15 16 -10 0 -15 10 -15 34 0 36 15 46 73 46 17 0 27 5
27 15 0 9 9 15 25 15 18 0 25 5 25 20 0 19 7 20 141 20 132 0 141 -1 146 -20
4 -15 14 -20 39 -20 22 0 34 5 34 14 0 7 9 16 20 19 15 4 20 14 20 41 0 25 4
36 15 36 8 0 15 9 15 20 0 13 -7 20 -20 20 -11 0 -20 7 -20 15 0 8 -14 17 -35
21 -19 3 -35 10 -35 15 0 5 -6 9 -14 9 -9 0 -17 15 -21 40 -4 25 -12 40 -21
40 -9 0 -14 11 -14 34 0 31 -3 34 -35 40 -21 4 -35 13 -35 21 0 11 -12 15 -40
15 -33 0 -40 3 -40 20 0 18 -7 20 -55 20 -40 0 -55 4 -55 14 0 16 -47 27 -79
19 -17 -4 -24 -1 -28 16 -6 24 -33 29 -33 6 0 -8 -9 -15 -20 -15 -16 0 -20 7
-20 35 l0 35 -55 0 c-42 0 -55 3 -55 15 0 8 -7 15 -15 15 -8 0 -15 -7 -15 -15
0 -12 -15 -15 -75 -15 -60 0 -75 3 -75 15 0 15 -44 21 -113 17 -21 -2 -30 3
-34 18 -3 11 -11 20 -18 20 -7 0 -15 9 -18 20 -4 17 -14 20 -56 20 -39 0 -51
4 -51 15 0 8 7 15 15 15 8 0 15 9 15 20 0 17 7 20 40 20 33 0 40 3 40 20 0 11
7 20 15 20 8 0 15 7 15 15 0 11 11 15 40 15 28 0 40 4 40 15 0 8 14 17 35 21
38 7 47 29 15 37 -11 3 -20 12 -20 20 0 8 -9 17 -20 20 -11 3 -20 12 -20 21 0
11 -9 16 -29 16 -25 0 -30 -5 -35 -35 -6 -32 -10 -35 -41 -35 l-35 0 0 50 0
50 -90 0 c-73 0 -90 -3 -90 -15 0 -8 -9 -15 -20 -15 -11 0 -20 7 -20 15 0 8
-7 15 -15 15 -8 0 -15 -7 -15 -15z m-990 -145 c0 -5 -7 -10 -15 -10 -8 0 -15
5 -15 10 0 6 7 10 15 10 8 0 15 -4 15 -10z m2300 -765 c0 -8 -9 -15 -20 -15
-11 0 -20 7 -20 15 0 8 9 15 20 15 11 0 20 -7 20 -15z m-550 -150 c0 -8 -7
-15 -15 -15 -8 0 -15 7 -15 15 0 8 7 15 15 15 8 0 15 -7 15 -15z"/>
<path d="M2810 2245 c0 -8 7 -15 15 -15 8 0 15 7 15 15 0 8 -7 15 -15 15 -8 0
-15 -7 -15 -15z"/>
<path d="M3140 2245 c0 -8 7 -15 15 -15 8 0 15 7 15 15 0 8 -7 15 -15 15 -8 0
-15 -7 -15 -15z"/>
<path d="M2850 2205 c0 -8 7 -15 15 -15 8 0 15 7 15 15 0 8 -7 15 -15 15 -8 0
-15 -7 -15 -15z"/>
<path d="M2630 2175 c0 -8 7 -15 15 -15 8 0 15 7 15 15 0 8 -7 15 -15 15 -8 0
-15 -7 -15 -15z"/>
<path d="M5730 1466 c0 -25 4 -36 15 -36 8 0 15 7 15 15 0 8 9 15 20 15 14 0
20 -7 20 -21 0 -25 33 -22 38 4 2 12 -3 17 -17 17 -12 0 -21 6 -21 15 0 8 -6
15 -12 15 -7 0 -23 3 -35 6 -21 6 -23 3 -23 -30z"/>
<path d="M5366 988 c-8 -42 0 -47 57 -41 46 5 47 7 47 39 0 34 0 34 -49 34
-47 0 -49 -1 -55 -32z"/>
<path d="M5582 933 c2 -10 10 -18 18 -18 8 0 16 8 18 18 2 12 -3 17 -18 17
-15 0 -20 -5 -18 -17z"/>
<path d="M5260 930 c0 -5 7 -10 15 -10 8 0 15 5 15 10 0 6 -7 10 -15 10 -8 0
-15 -4 -15 -10z"/>
<path d="M5510 930 c0 -5 7 -10 15 -10 8 0 15 5 15 10 0 6 -7 10 -15 10 -8 0
-15 -4 -15 -10z"/>
</g>
</svg>
