<?xml version="1.0" standalone="no"?>
<!DOCTYPE svg PUBLIC "-//W3C//DTD SVG 20010904//EN"
 "http://www.w3.org/TR/2001/REC-SVG-20010904/DTD/svg10.dtd">
<svg version="1.0" xmlns="http://www.w3.org/2000/svg"
 width="378.000000pt" height="126.000000pt" viewBox="0 0 378.000000 126.000000"
 preserveAspectRatio="xMidYMid meet">

<g transform="translate(0.000000,126.000000) scale(0.100000,-0.100000)"
fill="#000000" stroke="none">
<path d="M2033 1143 c-7 -2 -13 -9 -13 -15 0 -14 43 -6 48 10 4 12 -12 15 -35
5z"/>
<path d="M1900 1080 c0 -13 -7 -20 -19 -20 -11 0 -23 -4 -26 -10 -4 -6 -56
-10 -123 -10 -64 0 -135 -5 -157 -10 -22 -6 -71 -13 -110 -16 -38 -3 -74 -10
-79 -15 -13 -12 -46 -11 -46 1 0 14 -106 13 -132 -1 -12 -6 -61 -11 -110 -11
-48 0 -88 -3 -88 -7 0 -18 -72 -30 -223 -35 -92 -3 -176 -10 -187 -16 -10 -5
-30 -10 -43 -10 -13 0 -57 -13 -97 -30 -40 -16 -85 -30 -99 -30 -41 0 -131
-73 -131 -106 0 -8 -4 -14 -10 -14 -5 0 -10 -18 -10 -40 0 -22 -4 -40 -10 -40
-5 0 -10 -11 -10 -25 0 -14 -4 -25 -10 -25 -5 0 -10 -7 -10 -15 0 -8 5 -15 10
-15 14 0 13 -87 -1 -96 -8 -4 -10 -27 -6 -65 3 -39 1 -59 -6 -62 -7 -3 -1 -15
16 -30 27 -24 37 -57 16 -57 -18 0 19 -30 51 -41 16 -6 30 -15 30 -20 0 -5 11
-9 25 -9 14 0 25 -4 25 -10 0 -5 25 -10 55 -10 30 0 55 4 55 8 0 14 65 32 116
32 38 0 53 -5 64 -20 16 -22 83 -29 95 -10 8 13 55 13 55 0 0 -6 32 -10 75
-10 73 0 75 1 75 24 0 28 8 29 270 46 336 22 436 23 463 5 14 -9 36 -16 49
-14 13 1 31 -1 40 -5 9 -4 72 -6 141 -4 101 2 127 6 141 20 18 19 66 25 66 9
0 -5 -8 -12 -17 -14 -10 -3 10 -5 45 -6 45 -1 62 3 62 12 0 9 23 17 63 24 82
14 407 17 407 3 0 -5 11 -10 24 -10 13 0 26 -5 28 -10 7 -21 147 -34 234 -22
44 7 160 12 258 12 144 0 180 3 192 15 9 8 11 15 5 15 -18 0 -12 28 7 34 9 3
52 7 95 8 63 2 77 6 77 19 0 12 -18 19 -70 29 -39 7 -73 17 -76 21 -9 16 -104
22 -339 23 -206 1 -240 3 -243 16 -2 13 17 16 130 17 73 1 163 2 201 2 37 1
67 5 67 11 0 6 -12 10 -27 10 l-27 0 22 16 c16 11 37 14 81 10 61 -6 91 -1 91
15 0 5 -31 9 -70 9 -40 0 -70 4 -70 10 0 6 -16 10 -35 10 -32 0 -35 3 -35 29
0 16 -6 32 -12 34 -26 11 84 7 125 -5 39 -10 120 -2 90 9 -36 13 -3 23 80 23
63 0 87 3 77 10 -8 5 -32 10 -52 10 -39 0 -84 16 -106 37 -11 11 -7 13 22 13
20 0 36 5 36 10 0 6 -41 10 -102 10 -92 0 -165 13 -184 33 -11 11 -83 8 -104
-3 -13 -7 -27 -6 -47 5 -15 7 -37 17 -48 20 -17 6 -15 9 20 31 34 20 53 24
125 24 87 1 93 11 13 25 -38 6 -71 25 -44 25 6 0 11 5 11 10 0 6 -16 10 -35
10 -19 0 -35 5 -35 10 0 6 -8 5 -20 -2 -16 -10 -24 -10 -40 0 -11 7 -52 12
-95 12 -41 0 -75 4 -75 9 0 4 -20 16 -45 25 -25 10 -45 22 -45 27 0 5 -11 9
-25 9 -14 0 -25 5 -25 10 0 6 -11 10 -25 10 -14 0 -25 6 -25 13 0 15 -103 21
-129 8 -20 -11 -101 6 -101 20 0 5 -9 9 -20 9 -12 0 -30 9 -42 19 -19 18 -23
18 -43 5 -20 -13 -27 -13 -66 2 -32 13 -44 15 -47 5 -3 -9 -7 -9 -19 0 -12 10
-16 10 -23 -1 -7 -11 -14 -12 -35 -2 -14 7 -55 12 -90 12 -58 0 -65 -2 -65
-20z m1105 -710 c3 -5 -1 -10 -10 -10 -9 0 -13 5 -10 10 3 6 8 10 10 10 2 0 7
-4 10 -10z"/>
<path d="M3310 460 c0 -5 7 -10 16 -10 8 0 12 5 9 10 -3 6 -10 10 -16 10 -5 0
-9 -4 -9 -10z"/>
<path d="M490 190 c0 -5 5 -10 10 -10 6 0 10 5 10 10 0 6 -4 10 -10 10 -5 0
-10 -4 -10 -10z"/>
<path d="M570 190 c0 -5 5 -10 11 -10 5 0 7 5 4 10 -3 6 -8 10 -11 10 -2 0 -4
-4 -4 -10z"/>
</g>
</svg>
