<svg width="20" height="20" viewBox="0 0 20 20" fill="none" xmlns="http://www.w3.org/2000/svg">
<g clip-path="url(#clip0_383_6000)">
<path d="M10 12.6667C11.4728 12.6667 12.6667 11.4728 12.6667 10C12.6667 8.52725 11.4728 7.33334 10 7.33334C8.52728 7.33334 7.33337 8.52725 7.33337 10C7.33337 11.4728 8.52728 12.6667 10 12.6667Z" fill="white"/>
<path d="M7.49996 1.66666L5.97496 3.33332H3.33329C2.41663 3.33332 1.66663 4.08332 1.66663 4.99999V15C1.66663 15.9167 2.41663 16.6667 3.33329 16.6667H16.6666C17.5833 16.6667 18.3333 15.9167 18.3333 15V4.99999C18.3333 4.08332 17.5833 3.33332 16.6666 3.33332H14.025L12.5 1.66666H7.49996ZM9.99996 14.1667C7.69996 14.1667 5.83329 12.3 5.83329 9.99999C5.83329 7.69999 7.69996 5.83332 9.99996 5.83332C12.3 5.83332 14.1666 7.69999 14.1666 9.99999C14.1666 12.3 12.3 14.1667 9.99996 14.1667Z" fill="white"/>
</g>
<defs>
<clipPath id="clip0_383_6000">
<rect width="20" height="20" fill="white"/>
</clipPath>
</defs>
</svg>
