<svg width="67" height="67" viewBox="0 0 67 67" fill="none" xmlns="http://www.w3.org/2000/svg">
<g filter="url(#filter0_d_336_21090)">
<circle cx="33.5" cy="29.5" r="29.5" fill="#181816"/>
</g>
<path d="M31.382 33.64V32.52C31.382 32.4933 31.3954 32.4133 31.422 32.28C31.4487 32.1467 31.462 32.0667 31.462 32.04V31.92C31.4354 31.92 31.3954 31.8533 31.342 31.72L31.262 31.56C31.2354 31.5333 31.1554 31.5067 31.022 31.48C30.8887 31.4533 30.782 31.4133 30.702 31.36H30.422C30.3954 31.36 30.3287 31.3867 30.222 31.44C30.1154 31.4667 30.0487 31.48 30.022 31.48H29.862L29.742 31.36H28.502C28.4754 31.36 28.3954 31.3867 28.262 31.44C28.1554 31.4667 28.0887 31.48 28.062 31.48H27.622C27.5954 31.48 27.5287 31.4533 27.422 31.4C27.3154 31.3467 27.2354 31.3067 27.182 31.28L26.422 30.72C26.3687 30.6667 26.2487 30.56 26.062 30.4C25.902 30.2133 25.7954 30.0667 25.742 29.96L25.662 29.88C25.6087 29.8267 25.582 29.7867 25.582 29.76C25.582 29.7333 25.5554 29.68 25.502 29.6C25.4754 29.52 25.462 29.4667 25.462 29.44V29.36C25.462 29.3333 25.4754 29.28 25.502 29.2C25.5554 29.0933 25.582 29.0267 25.582 29C25.582 28.9467 25.6087 28.84 25.662 28.68C25.7154 28.4933 25.742 28.3733 25.742 28.32C25.742 28.2933 25.8087 28.24 25.942 28.16C25.9687 28.16 26.0087 28.1467 26.062 28.12C26.1687 28.0667 26.2354 28.04 26.262 28.04C26.3154 28.04 26.4087 28.0267 26.542 28C26.6754 27.9467 26.7554 27.92 26.782 27.92C26.8354 27.92 26.9954 27.9067 27.262 27.88C27.5287 27.8533 27.7287 27.84 27.862 27.84H28.062C28.0887 27.84 28.142 27.8267 28.222 27.8C28.302 27.7733 28.3687 27.76 28.422 27.76H28.982C29.0354 27.76 29.142 27.76 29.302 27.76C29.462 27.7333 29.6354 27.72 29.822 27.72C30.0087 27.6933 30.1687 27.68 30.302 27.68C30.462 27.6533 30.5687 27.64 30.622 27.64H31.062C31.142 27.64 31.2087 27.5867 31.262 27.48L31.462 27.28C31.462 27.28 31.502 27.24 31.582 27.16C31.6087 27.1333 31.622 27.1067 31.622 27.08V26.04L31.742 25.76V25.28C31.742 25.12 31.7554 24.84 31.782 24.44C31.8087 24.04 31.822 23.7733 31.822 23.64L31.622 23.44V22.44L31.742 22.24V21.16V21.04C31.742 20.96 31.7687 20.8933 31.822 20.84C31.822 20.8133 31.8354 20.7867 31.862 20.76C31.8887 20.7067 31.9154 20.6533 31.942 20.6L32.022 20.44C32.0487 20.44 32.0887 20.4267 32.142 20.4C32.2487 20.3467 32.3154 20.32 32.342 20.32H32.462C32.4887 20.32 32.6087 20.3467 32.822 20.4C32.902 20.4267 32.9954 20.44 33.102 20.44C33.1287 20.44 33.182 20.4667 33.262 20.52C33.342 20.5733 33.3954 20.6 33.422 20.6C33.4487 20.6 33.5154 20.6267 33.622 20.68C33.7554 20.7333 33.8354 20.7867 33.862 20.84L34.502 21.48L34.702 21.92C34.7554 22.0533 34.8354 22.2933 34.942 22.64C35.0487 22.96 35.1154 23.1467 35.142 23.2C35.142 23.2533 35.1554 23.4133 35.182 23.68C35.2354 23.92 35.262 24.08 35.262 24.16V25.76C35.262 25.8133 35.2887 25.96 35.342 26.2C35.3954 26.4133 35.4354 26.5467 35.462 26.6C35.4887 26.7067 35.5554 26.8667 35.662 27.08C35.7954 27.2933 35.8754 27.4267 35.902 27.48H36.102C36.1287 27.48 36.182 27.5067 36.262 27.56C36.342 27.6133 36.3954 27.64 36.422 27.64H36.662C36.9287 27.64 37.182 27.6 37.422 27.52C37.662 27.44 37.9154 27.4 38.182 27.4H38.382L38.582 27.48H39.622L39.862 27.4H39.942L40.182 27.48H40.422C40.4487 27.48 40.4887 27.5067 40.542 27.56C40.622 27.6133 40.6754 27.64 40.702 27.64C40.782 27.64 40.9287 27.68 41.142 27.76C41.3554 27.8133 41.4887 27.84 41.542 27.84C41.5687 27.84 41.622 27.8533 41.702 27.88C41.8087 27.9067 41.8754 27.92 41.902 27.92C41.9554 27.92 42.022 27.9467 42.102 28C42.2087 28.0267 42.2754 28.04 42.302 28.04C42.3554 28.04 42.4487 28.0667 42.582 28.12C42.7154 28.1733 42.8087 28.2133 42.862 28.24C43.0487 28.32 43.222 28.4267 43.382 28.56C43.542 28.6667 43.6887 28.7733 43.822 28.88L43.902 28.96L43.942 29V29.2C43.942 29.2533 43.902 29.3333 43.822 29.44C43.742 29.52 43.6754 29.5867 43.622 29.64C43.5954 29.6933 43.5287 29.7467 43.422 29.8C43.342 29.8533 43.2887 29.9067 43.262 29.96C43.2354 30.0133 43.2087 30.0533 43.182 30.08C43.1554 30.1067 43.142 30.1333 43.142 30.16V30.2C43.142 30.2267 43.1287 30.2533 43.102 30.28C43.102 30.28 43.102 30.3067 43.102 30.36C43.0754 30.4133 43.062 30.4533 43.062 30.48C43.062 30.5333 43.0487 30.5733 43.022 30.6C42.9954 30.6267 42.982 30.6667 42.982 30.72C42.9287 30.7467 42.8887 30.8 42.862 30.88C42.8354 30.96 42.7954 31.0133 42.742 31.04C42.6887 31.12 42.582 31.2 42.422 31.28C42.3954 31.28 42.3287 31.2933 42.222 31.32C42.1154 31.3467 42.0487 31.36 42.022 31.36C41.9687 31.36 41.822 31.3867 41.582 31.44C41.342 31.4667 41.1954 31.48 41.142 31.48C41.1154 31.48 41.062 31.4933 40.982 31.52C40.9287 31.5467 40.8887 31.56 40.862 31.56H40.422L40.302 31.68H40.102L39.862 31.56H38.782C38.7554 31.56 38.702 31.5467 38.622 31.52C38.5687 31.4933 38.5154 31.48 38.462 31.48H37.262L37.062 31.36C37.0354 31.36 36.9154 31.3867 36.702 31.44C36.4887 31.4667 36.3287 31.5067 36.222 31.56C36.1687 31.56 36.1154 31.5867 36.062 31.64C36.0354 31.6933 36.022 31.7333 36.022 31.76C35.9954 31.8667 35.9687 32.0667 35.942 32.36C35.9154 32.6267 35.902 32.8 35.902 32.88C35.902 32.9067 35.9154 32.9733 35.942 33.08C35.9954 33.1867 36.022 33.2533 36.022 33.28V33.4C36.022 33.4267 35.9954 33.52 35.942 33.68C35.9154 33.8133 35.902 33.8933 35.902 33.92C35.8754 34.0533 35.8487 34.28 35.822 34.6C35.822 34.8933 35.822 35.0667 35.822 35.12V37.04L35.662 37.16V37.92L35.542 38.12C35.542 38.1733 35.5287 38.32 35.502 38.56C35.502 38.7733 35.4887 38.9067 35.462 38.96C35.4354 39.04 35.3954 39.1067 35.342 39.16C35.2887 39.2133 35.2487 39.2667 35.222 39.32C35.1954 39.3467 35.1687 39.3867 35.142 39.44C35.1154 39.4667 35.0754 39.5067 35.022 39.56C34.9954 39.5867 34.9554 39.6133 34.902 39.64L34.502 39.92C34.4754 39.92 34.4354 39.9467 34.382 40C34.3554 40.0267 34.3287 40.04 34.302 40.04H34.182C34.1554 40.04 34.102 40.0133 34.022 39.96C33.942 39.88 33.8887 39.84 33.862 39.84H32.862C32.8354 39.84 32.8087 39.8267 32.782 39.8C32.7287 39.7733 32.702 39.76 32.702 39.76C32.6487 39.7067 32.5554 39.6533 32.422 39.6C32.3154 39.52 32.262 39.4667 32.262 39.44L32.142 39.2C32.142 39.1733 32.102 39.12 32.022 39.04C31.9687 38.96 31.942 38.9067 31.942 38.88C31.942 38.8267 31.902 38.72 31.822 38.56C31.7687 38.4 31.742 38.28 31.742 38.2C31.742 38.1733 31.7154 38.12 31.662 38.04C31.6354 37.9333 31.622 37.8533 31.622 37.8C31.622 37.7733 31.5954 37.72 31.542 37.64C31.4887 37.56 31.462 37.5067 31.462 37.48V36.32C31.462 36.2667 31.4487 36.1333 31.422 35.92C31.3954 35.68 31.3687 35.4267 31.342 35.16C31.342 34.8933 31.3287 34.6533 31.302 34.44C31.2754 34.2267 31.262 34.0933 31.262 34.04V33.84L31.382 33.64Z" fill="white"/>
<defs>
<filter id="filter0_d_336_21090" x="0" y="0" width="67" height="67" filterUnits="userSpaceOnUse" color-interpolation-filters="sRGB">
<feFlood flood-opacity="0" result="BackgroundImageFix"/>
<feColorMatrix in="SourceAlpha" type="matrix" values="0 0 0 0 0 0 0 0 0 0 0 0 0 0 0 0 0 0 127 0" result="hardAlpha"/>
<feOffset dy="4"/>
<feGaussianBlur stdDeviation="2"/>
<feComposite in2="hardAlpha" operator="out"/>
<feColorMatrix type="matrix" values="0 0 0 0 0 0 0 0 0 0 0 0 0 0 0 0 0 0 0.25 0"/>
<feBlend mode="normal" in2="BackgroundImageFix" result="effect1_dropShadow_336_21090"/>
<feBlend mode="normal" in="SourceGraphic" in2="effect1_dropShadow_336_21090" result="shape"/>
</filter>
</defs>
</svg>
