<?xml version="1.0" standalone="no"?>
<!DOCTYPE svg PUBLIC "-//W3C//DTD SVG 20010904//EN"
 "http://www.w3.org/TR/2001/REC-SVG-20010904/DTD/svg10.dtd">
<svg version="1.0" xmlns="http://www.w3.org/2000/svg"
 width="267.000000pt" height="258.000000pt" viewBox="0 0 267.000000 258.000000"
 preserveAspectRatio="xMidYMid meet">

<g transform="translate(0.000000,258.000000) scale(0.100000,-0.100000)"
fill="#000000" stroke="none">
<path d="M1000 2390 c0 -5 -13 -10 -29 -10 -17 0 -33 -4 -36 -10 -3 -5 -15
-10 -26 -10 -10 0 -19 -3 -19 -7 0 -5 -20 -16 -45 -26 -41 -17 -60 -37 -35
-37 6 0 10 5 10 10 0 16 27 11 34 -6 4 -11 -1 -18 -14 -21 -33 -9 -12 -23 35
-23 24 0 47 -5 50 -10 7 -11 -18 -40 -34 -40 -6 0 -25 -13 -43 -30 -17 -16
-35 -30 -39 -30 -11 0 -59 -49 -59 -60 0 -6 -7 -10 -15 -10 -9 0 -18 -7 -21
-15 -3 -8 -30 -26 -59 -41 -30 -14 -56 -32 -59 -40 -3 -8 -12 -14 -21 -14 -8
0 -15 -4 -15 -8 0 -4 -15 -16 -32 -27 -18 -10 -49 -36 -69 -57 -20 -21 -41
-38 -45 -38 -18 -1 -54 -39 -54 -57 -1 -17 -1 -17 -12 1 -8 15 -8 21 0 24 7 2
12 12 12 23 0 10 5 19 10 19 6 0 10 8 10 17 0 15 -2 15 -14 -2 -30 -44 -56
-97 -56 -115 0 -11 -4 -20 -10 -20 -5 0 -10 -7 -10 -15 0 -8 -4 -15 -10 -15
-5 0 -10 -9 -10 -20 0 -11 -4 -20 -10 -20 -5 0 -12 -11 -16 -25 -3 -14 -10
-25 -15 -25 -5 0 -9 -11 -9 -24 0 -14 -5 -28 -10 -31 -6 -3 -10 -26 -10 -51 0
-24 -4 -44 -10 -44 -13 0 -13 -107 0 -115 6 -3 10 -40 10 -81 0 -41 4 -74 9
-74 9 0 26 -38 36 -83 3 -17 18 -35 35 -45 21 -12 30 -25 30 -44 0 -14 5 -28
11 -30 6 -2 11 -23 11 -46 -1 -37 1 -40 14 -28 8 8 14 21 14 30 0 8 4 18 10
21 5 3 10 -1 10 -9 0 -9 5 -16 10 -16 6 0 10 -9 10 -20 0 -11 5 -20 10 -20 6
0 10 -9 10 -19 0 -11 4 -22 9 -25 4 -3 11 -20 15 -37 3 -17 15 -43 26 -59 11
-15 20 -44 20 -63 0 -26 5 -37 19 -42 11 -3 27 -24 36 -47 9 -22 30 -54 47
-70 24 -22 29 -31 18 -38 -18 -11 24 -70 51 -70 10 0 19 -3 19 -8 0 -7 37 -25
78 -37 16 -5 22 -2 22 9 0 9 -8 16 -20 16 -13 0 -21 9 -26 28 -3 15 -10 38
-15 51 -11 26 -3 43 10 22 7 -11 10 -11 15 0 5 11 7 11 12 2 4 -9 28 -13 70
-13 l64 0 0 -30 c0 -16 5 -30 10 -30 6 0 10 -11 10 -25 0 -16 6 -25 15 -25 8
0 15 -7 15 -15 0 -8 9 -15 20 -15 11 0 20 7 20 15 0 17 35 21 45 5 3 -5 13
-10 21 -10 9 0 22 -6 29 -14 12 -12 12 -15 -2 -20 -14 -6 -13 -9 8 -23 13 -9
26 -20 29 -24 6 -8 65 -18 160 -27 67 -6 73 -8 53 -19 -29 -17 -67 -16 -197 4
-89 13 -110 20 -114 35 -5 20 -15 22 -42 8 -13 -7 -21 -7 -25 0 -3 5 -22 10
-41 10 -19 0 -34 5 -34 10 0 6 -4 10 -10 10 -21 0 -9 -18 20 -30 17 -7 30 -16
30 -20 0 -5 18 -11 40 -15 22 -4 42 -11 46 -16 3 -5 18 -9 34 -9 16 0 32 -4
35 -10 3 -5 26 -10 50 -10 24 0 47 -5 50 -10 4 -7 12 -7 25 0 27 14 50 12 50
-5 0 -22 -48 -30 -97 -17 -24 7 -57 12 -73 12 -17 0 -30 4 -30 9 0 5 -15 11
-32 14 -55 9 -93 20 -98 27 -3 4 -20 11 -37 15 -28 5 -32 4 -27 -9 3 -9 15
-16 25 -16 10 0 19 -4 19 -10 0 -5 11 -10 25 -10 14 0 25 -4 25 -10 0 -5 10
-10 23 -10 13 0 27 -4 32 -9 18 -16 214 -41 323 -41 71 0 139 7 202 21 52 12
110 23 128 26 18 3 35 9 38 14 3 5 14 9 25 9 10 0 27 4 37 9 39 21 111 50 167
67 33 11 74 32 90 48 17 15 47 35 68 43 20 8 37 19 37 24 0 5 5 9 10 9 6 0 22
11 36 25 14 14 29 25 33 25 5 0 14 13 19 29 5 15 22 40 36 54 14 14 26 29 26
32 0 3 5 11 10 18 21 25 60 88 60 97 0 6 4 10 9 10 5 0 11 9 14 21 3 11 15 23
26 26 11 3 23 15 26 27 3 11 12 37 20 56 7 19 19 54 26 78 6 23 16 42 21 42 4
0 8 24 8 53 0 29 4 57 8 63 16 18 32 92 32 148 0 45 3 56 16 56 13 0 15 9 10
53 -3 28 -10 93 -15 142 -4 50 -16 110 -25 134 -9 24 -14 46 -11 49 2 2 0 13
-6 24 -7 13 -16 17 -30 13 -11 -4 -19 -2 -19 4 0 6 9 11 20 11 11 0 20 7 20
15 0 19 -32 33 -38 17 -7 -22 -20 -12 -27 21 -6 28 -41 103 -55 117 -3 3 -12
19 -20 35 -17 35 -62 99 -72 103 -5 2 -8 10 -8 18 0 8 -4 14 -10 14 -5 0 -10
6 -10 13 0 6 -16 30 -35 51 -19 22 -35 44 -35 48 0 5 -11 20 -24 33 l-25 24 3
-26 c2 -15 8 -29 15 -31 6 -2 11 -9 11 -16 0 -6 9 -18 20 -26 11 -8 20 -18 20
-22 0 -4 -9 -8 -20 -8 -11 0 -20 3 -20 8 0 9 -49 32 -71 32 -10 0 -19 3 -21 8
-3 8 -84 62 -93 62 -3 0 -19 14 -37 30 -17 17 -34 30 -39 30 -4 0 -14 6 -21
13 -12 11 -82 47 -133 68 -26 10 -109 29 -157 36 -21 3 -38 9 -38 14 0 5 -18
9 -40 9 -22 0 -40 5 -40 10 0 6 -41 10 -104 10 -59 0 -108 -4 -111 -10 -3 -6
-50 -10 -106 -10 -59 0 -99 4 -99 10 0 6 -11 10 -25 10 -14 0 -25 -4 -25 -10z
m197 -186 c-3 -3 -12 -4 -19 -1 -8 3 -5 6 6 6 11 1 17 -2 13 -5z m21 -316 c32
-50 42 -141 19 -187 l-15 -30 31 -3 c26 -2 33 -9 41 -37 8 -29 7 -36 -9 -45
-10 -6 -32 -22 -48 -36 l-29 -26 53 1 c48 0 54 -2 57 -22 4 -24 -39 -56 -46
-34 -2 6 -23 11 -47 11 -60 0 -96 -33 -145 -133 -23 -45 -38 -68 -34 -52 15
68 47 153 75 198 35 58 36 67 7 40 -37 -32 -46 -35 -76 -19 -59 30 -38 80 47
115 39 17 39 33 1 131 -42 105 -38 151 13 192 20 15 23 15 50 -4 15 -11 40
-38 55 -60z m326 -389 c14 -17 26 -40 26 -52 0 -20 -17 -90 -34 -145 l-8 -23
39 24 c49 32 106 52 127 44 24 -9 20 -55 -10 -94 -31 -41 -91 -72 -153 -80
-40 -5 -51 -2 -76 19 -35 30 -35 51 -1 178 14 52 26 110 26 128 0 43 29 43 64
1z m-234 -124 c0 -2 -13 -25 -30 -51 -59 -93 -75 -184 -61 -335 14 -137 24
-168 71 -220 37 -42 39 -43 40 -19 1 24 1 25 16 5 8 -11 14 -35 12 -55 -3 -32
-6 -35 -40 -38 -50 -4 -100 40 -129 116 -20 49 -23 76 -23 197 0 142 9 186 69
329 8 18 5 17 -34 -4 -72 -41 -148 -117 -176 -175 -29 -62 -60 -75 -71 -30 -8
31 36 122 56 117 7 -2 25 8 39 21 41 38 117 86 184 117 62 29 77 34 77 25z
m1227 -87 c-2 -13 -4 -3 -4 22 0 25 2 35 4 23 2 -13 2 -33 0 -45z m-47 11 c0
-5 -4 -9 -10 -9 -5 0 -10 7 -10 16 0 8 5 12 10 9 6 -3 10 -10 10 -16z m-850
-144 c6 -8 14 -42 17 -75 4 -44 9 -60 19 -56 53 20 97 27 105 15 16 -27 -9
-55 -84 -92 -50 -25 -95 -57 -129 -93 -29 -30 -57 -54 -62 -54 -25 0 -46 35
-46 75 0 41 1 42 60 70 33 16 60 31 60 34 -1 3 -7 17 -15 31 -28 48 -13 110
35 147 20 16 25 16 40 -2z m827 -92 c-3 -10 -5 -2 -5 17 0 19 2 27 5 18 2 -10
2 -26 0 -35z m-21 -101 c-12 -12 -18 8 -10 35 l8 28 4 -28 c2 -16 1 -31 -2
-35z m-1835 -382 c5 0 9 5 9 11 0 8 5 7 15 -1 9 -7 14 -19 11 -25 -3 -8 4 -10
20 -7 23 4 24 2 24 -42 0 -25 5 -46 10 -46 6 0 10 -11 10 -25 0 -30 -7 -31
-40 -8 -47 32 -68 62 -35 49 14 -5 13 -2 0 24 -9 17 -20 30 -25 30 -6 0 -10 9
-10 19 0 11 -5 21 -12 23 -7 3 -8 9 -3 19 8 12 10 11 13 -3 2 -10 8 -18 13
-18z m934 -300 c-3 -5 -22 -10 -41 -10 -19 0 -34 5 -34 10 0 6 18 10 41 10 24
0 38 -4 34 -10z m-133 -23 c-24 -7 -36 -7 -44 1 -9 9 -1 12 33 11 l44 -1 -33
-11z m291 -14 c-7 -2 -19 -2 -25 0 -7 3 -2 5 12 5 14 0 19 -2 13 -5z m-225
-20 c-10 -2 -26 -2 -35 0 -10 3 -2 5 17 5 19 0 27 -2 18 -5z m165 0 c-7 -2
-21 -2 -30 0 -10 3 -4 5 12 5 17 0 24 -2 18 -5z m-63 -13 c0 -5 -7 -10 -16
-10 -8 0 -12 5 -9 10 3 6 10 10 16 10 5 0 9 -4 9 -10z m-65 -22 c-1 -22 -7
-23 -96 -29 -52 -4 -102 -2 -111 3 -24 12 -23 38 2 38 11 0 20 -4 20 -10 0
-16 131 -11 160 5 14 8 25 14 26 15 0 0 0 -10 -1 -22z"/>
<path d="M1810 2390 c0 -5 9 -10 20 -10 11 0 20 5 20 10 0 6 -9 10 -20 10 -11
0 -20 -4 -20 -10z"/>
<path d="M1870 2369 c0 -5 5 -7 10 -4 6 3 10 8 10 11 0 2 -4 4 -10 4 -5 0 -10
-5 -10 -11z"/>
<path d="M750 2280 c0 -5 -6 -10 -14 -10 -8 0 -16 -7 -20 -15 -7 -19 -1 -19
35 2 32 19 38 33 14 33 -8 0 -15 -4 -15 -10z"/>
<path d="M2035 2260 c10 -11 28 -19 39 -19 20 2 20 2 -1 6 -13 2 -23 8 -23 13
0 4 -8 11 -17 14 -15 6 -15 4 2 -14z"/>
<path d="M798 2243 c7 -3 16 -2 19 1 4 3 -2 6 -13 5 -11 0 -14 -3 -6 -6z"/>
<path d="M2236 2138 c33 -39 42 -48 48 -48 14 0 4 23 -19 45 -31 31 -55 33
-29 3z"/>
<path d="M385 1880 c3 -5 8 -10 11 -10 2 0 4 5 4 10 0 6 -5 10 -11 10 -5 0 -7
-4 -4 -10z"/>
<path d="M360 856 c0 -8 5 -18 10 -21 6 -3 10 3 10 14 0 12 -4 21 -10 21 -5 0
-10 -6 -10 -14z"/>
<path d="M310 821 c0 -12 5 -21 10 -21 6 0 10 6 10 14 0 8 -4 18 -10 21 -5 3
-10 -3 -10 -14z"/>
<path d="M856 370 c5 -5 23 -11 39 -13 17 -3 22 -2 13 0 -10 2 -18 9 -18 14 0
5 -10 9 -22 9 -14 0 -19 -3 -12 -10z"/>
<path d="M828 153 c7 -3 16 -2 19 1 4 3 -2 6 -13 5 -11 0 -14 -3 -6 -6z"/>
<path d="M867 146 c-4 -10 -1 -16 8 -16 8 0 15 -4 15 -10 0 -5 16 -10 35 -10
19 0 35 4 35 9 0 29 -83 53 -93 27z"/>
</g>
</svg>
