<svg width="20" height="20" viewBox="0 0 20 20" fill="none" xmlns="http://www.w3.org/2000/svg">
<path d="M13.7917 12.1667H12.9358L12.6325 11.8742C13.6942 10.6392 14.3333 9.03583 14.3333 7.29167C14.3333 3.4025 11.1808 0.25 7.29167 0.25C3.4025 0.25 0.25 3.4025 0.25 7.29167C0.25 11.1808 3.4025 14.3333 7.29167 14.3333C9.03583 14.3333 10.6392 13.6942 11.8742 12.6325L12.1667 12.9358V13.7917L17.5833 19.1975L19.1975 17.5833L13.7917 12.1667ZM7.29167 12.1667C4.59417 12.1667 2.41667 9.98917 2.41667 7.29167C2.41667 4.59417 4.59417 2.41667 7.29167 2.41667C9.98917 2.41667 12.1667 4.59417 12.1667 7.29167C12.1667 9.98917 9.98917 12.1667 7.29167 12.1667Z" fill="white"/>
</svg>
