<?xml version="1.0" standalone="no"?>
<!DOCTYPE svg PUBLIC "-//W3C//DTD SVG 20010904//EN"
 "http://www.w3.org/TR/2001/REC-SVG-20010904/DTD/svg10.dtd">
<svg version="1.0" xmlns="http://www.w3.org/2000/svg"
 width="234.000000pt" height="228.000000pt" viewBox="0 0 234.000000 228.000000"
 preserveAspectRatio="xMidYMid meet">

<g transform="translate(0.000000,228.000000) scale(0.100000,-0.100000)"
fill="#000000" stroke="none">
<path d="M793 2061 c-23 -9 -45 -20 -49 -24 -4 -4 -15 -7 -24 -7 -10 0 -23 -7
-30 -15 -9 -10 -9 -15 -1 -15 6 0 11 -7 11 -15 0 -8 -4 -15 -10 -15 -5 0 -10
-5 -10 -11 0 -6 14 -9 33 -8 42 4 62 -8 46 -27 -6 -8 -18 -14 -25 -14 -8 0
-14 -3 -14 -7 0 -5 -17 -19 -37 -33 -21 -14 -49 -36 -64 -50 -40 -40 -73 -66
-92 -73 -15 -6 -124 -83 -137 -97 -15 -17 -98 -80 -105 -80 -4 0 -5 12 -1 28
5 25 5 26 -6 5 -6 -13 -15 -23 -20 -23 -4 0 -8 -9 -8 -19 0 -11 -4 -22 -9 -26
-5 -3 -12 -19 -16 -35 -4 -17 -11 -30 -16 -30 -5 0 -9 -7 -9 -15 0 -7 -6 -18
-13 -22 -7 -4 -22 -30 -32 -58 -26 -67 -26 -316 -1 -344 9 -10 16 -28 16 -42
1 -27 21 -59 39 -59 16 0 41 -61 41 -100 0 -34 19 -41 27 -10 8 31 17 24 42
-27 12 -27 26 -56 32 -65 5 -10 9 -24 9 -32 0 -7 7 -19 15 -26 8 -7 15 -26 15
-42 0 -18 10 -39 25 -54 14 -14 25 -31 25 -39 0 -8 15 -29 33 -46 20 -20 27
-33 20 -36 -22 -8 16 -51 66 -74 25 -12 54 -25 64 -30 12 -7 17 -5 17 6 0 8
-5 15 -11 15 -18 0 -36 25 -41 57 -3 25 0 33 14 36 10 3 18 1 18 -4 0 -5 25
-9 55 -9 30 0 56 -4 56 -10 1 -5 2 -14 3 -19 0 -5 4 -13 9 -17 4 -4 7 -13 7
-21 0 -15 35 -53 50 -53 6 0 10 7 10 15 0 8 7 15 15 15 8 0 15 -4 15 -10 0 -5
11 -10 24 -10 28 0 45 -18 27 -29 -7 -5 -2 -15 15 -30 22 -19 42 -24 120 -28
94 -6 117 -15 68 -27 -33 -9 -193 4 -200 15 -3 5 -16 9 -30 9 -15 0 -24 6 -24
15 0 18 -14 19 -42 4 -17 -9 -20 -9 -16 2 4 11 -5 14 -37 14 -35 0 -40 -2 -26
-11 33 -22 84 -44 120 -50 20 -4 41 -11 47 -16 6 -4 41 -9 78 -10 46 -2 66 -6
66 -15 0 -15 -80 -18 -108 -4 -9 4 -57 18 -107 30 -49 12 -91 27 -93 32 -2 5
-10 9 -18 9 -8 0 -11 -6 -8 -15 4 -8 12 -15 20 -15 8 0 14 -4 14 -10 0 -5 9
-10 21 -10 12 0 35 -6 52 -14 51 -23 196 -46 293 -46 79 0 242 25 269 41 6 4
28 10 50 14 22 4 45 10 50 15 6 4 23 10 40 14 16 4 32 11 35 15 3 3 32 15 64
25 33 10 73 31 90 47 17 16 39 29 49 29 9 0 17 4 17 9 0 5 8 12 18 15 22 8 92
69 92 81 0 9 70 108 99 142 6 7 11 16 11 21 0 5 12 22 28 38 31 33 53 77 73
147 7 26 17 47 21 47 4 0 8 18 8 40 0 22 7 57 15 77 8 19 15 59 15 88 0 30 4
55 10 57 5 2 10 19 11 38 2 59 -20 233 -31 244 -5 5 -10 25 -10 43 0 27 -4 33
-22 34 -17 1 -19 2 -5 6 21 6 22 17 2 33 -10 9 -15 9 -15 1 0 -23 -17 -9 -31
26 -8 20 -18 44 -24 54 -5 9 -21 38 -34 63 -14 25 -28 46 -33 46 -4 0 -8 5 -8
10 0 18 -134 194 -138 182 -2 -7 6 -26 18 -42 27 -38 19 -50 -19 -27 -16 9
-36 17 -45 17 -9 0 -16 4 -16 9 0 5 -10 13 -22 17 -12 3 -26 10 -32 15 -6 5
-27 21 -46 36 -72 57 -182 111 -245 120 -25 3 -48 9 -51 14 -2 4 -31 11 -64
15 -33 4 -60 11 -60 15 0 12 -177 12 -185 0 -7 -13 -163 -13 -170 -1 -8 14
-32 11 -82 -9z m204 -147 c-3 -3 -12 -4 -19 -1 -8 3 -5 6 6 6 11 1 17 -2 13
-5z m418 -325 c173 -1 225 -4 243 -16 23 -14 23 -16 17 -166 -6 -178 -6 -149
-6 -267 0 -52 -1 -108 -1 -125 -1 -16 0 -46 1 -65 2 -19 0 -51 -4 -70 -3 -19
-7 -54 -8 -77 -1 -37 -4 -42 -30 -47 -16 -3 -236 -6 -488 -6 l-459 0 2 120 c2
93 6 120 16 120 10 0 10 3 -2 15 -10 10 -13 28 -10 53 2 20 6 142 7 271 3 231
4 234 27 253 21 17 38 18 249 13 124 -3 325 -5 446 -6z m-1135 -35 c0 -8 -4
-12 -10 -9 -5 3 -10 10 -10 16 0 5 5 9 10 9 6 0 10 -7 10 -16z m1867 -421 c-3
-10 -5 -2 -5 17 0 19 2 27 5 18 2 -10 2 -26 0 -35z m-50 5 c-3 -8 -6 -5 -6 6
-1 11 2 17 5 13 3 -3 4 -12 1 -19z m-10 -195 c-3 -10 -5 -4 -5 12 0 17 2 24 5
18 2 -7 2 -21 0 -30z m-20 -80 c-3 -10 -5 -4 -5 12 0 17 2 24 5 18 2 -7 2 -21
0 -30z m-1577 -323 c0 -5 3 -9 8 -9 21 4 34 -3 29 -15 -4 -10 0 -12 14 -9 16
5 19 0 19 -31 0 -20 5 -45 12 -56 19 -31 2 -35 -37 -9 -36 25 -48 46 -19 35
10 -4 4 10 -15 36 -31 42 -39 68 -21 68 6 0 10 -4 10 -10z m794 -272 c-15 -7
-28 -7 -40 1 -16 9 -12 10 21 10 35 0 37 -2 19 -11z m-86 -15 c-10 -2 -28 -2
-40 0 -13 2 -5 4 17 4 22 1 32 -1 23 -4z m232 -13 c0 -5 -4 -10 -9 -10 -6 0
-13 5 -16 10 -3 6 1 10 9 10 9 0 16 -4 16 -10z m-187 -17 c-7 -2 -21 -2 -30 0
-10 3 -4 5 12 5 17 0 24 -2 18 -5z m140 0 c-7 -2 -21 -2 -30 0 -10 3 -4 5 12
5 17 0 24 -2 18 -5z m-58 -13 c3 -5 -1 -10 -10 -10 -9 0 -13 5 -10 10 3 6 8
10 10 10 2 0 7 -4 10 -10z m-54 -9 c-11 -7 -11 -10 0 -17 9 -6 -17 -11 -71
-15 -94 -6 -120 -3 -120 16 0 9 19 11 74 7 44 -3 81 0 92 6 22 13 45 16 25 3z"/>
<path d="M1041 1442 c-6 -11 -8 -59 -5 -113 4 -70 3 -90 -6 -79 -9 12 -10 9
-8 -14 2 -16 9 -32 17 -34 12 -4 13 14 8 110 -5 117 -3 131 23 141 12 4 12 6
-2 6 -10 1 -22 -7 -27 -17z"/>
<path d="M1103 1390 c0 -25 2 -35 4 -22 2 12 2 32 0 45 -2 12 -4 2 -4 -23z"/>
<path d="M1146 1414 c-11 -10 -16 -36 -17 -77 -1 -53 -3 -57 -9 -27 -6 29 -8
22 -9 -35 -2 -98 19 -71 26 34 7 92 21 123 47 102 14 -12 16 -12 10 3 -8 20
-28 21 -48 0z"/>
<path d="M970 1400 c-12 -7 -16 -38 -20 -137 -3 -70 -2 -137 2 -148 4 -11 7
44 7 121 1 111 4 144 16 154 8 6 20 8 26 4 8 -4 9 -3 5 4 -9 14 -16 15 -36 2z"/>
<path d="M1201 1354 c-1 -23 -3 -70 -6 -105 -3 -44 -2 -56 4 -39 5 14 10 41
10 60 2 41 23 86 39 83 7 -2 12 2 12 7 0 14 -27 12 -36 -2 -6 -9 -10 -5 -15
12 -6 20 -7 17 -8 -16z"/>
<path d="M1011 1364 c0 -11 3 -14 6 -6 3 7 2 16 -1 19 -3 4 -6 -2 -5 -13z"/>
<path d="M1022 1305 c0 -16 2 -22 5 -12 2 9 2 23 0 30 -3 6 -5 -1 -5 -18z"/>
<path d="M1258 1255 c-4 -33 -10 -79 -14 -102 -5 -30 -3 -43 5 -43 7 0 9 5 5
11 -3 6 -1 36 6 67 6 32 10 73 8 92 -3 28 -5 24 -10 -25z"/>
<path d="M877 1183 c-4 -3 -7 -13 -7 -22 1 -14 2 -14 11 1 6 11 16 15 26 11
11 -4 14 -3 9 5 -8 13 -29 16 -39 5z"/>
<path d="M1385 1159 c-24 -17 -26 -20 -8 -16 13 3 24 -1 27 -10 8 -21 9 -19
-24 -33 -16 -7 -30 -17 -30 -22 0 -6 6 -8 13 -5 52 22 50 22 43 -9 -11 -49
-11 -57 0 -61 15 -5 38 52 31 77 -4 16 1 23 19 30 32 12 31 24 -1 16 -26 -7
-35 8 -12 18 6 4 2 4 -10 2 -27 -5 -30 9 -5 23 13 8 14 10 2 11 -8 0 -28 -10
-45 -21z"/>
<path d="M877 1110 c3 -14 12 -41 20 -60 11 -30 12 -31 8 -6 -4 16 -13 43 -20
60 -11 23 -13 25 -8 6z"/>
<path d="M1378 1123 c7 -3 16 -2 19 1 4 3 -2 6 -13 5 -11 0 -14 -3 -6 -6z"/>
<path d="M1241 1074 c0 -17 -10 -57 -21 -89 -21 -62 -28 -122 -10 -95 5 8 10
27 10 41 0 14 7 46 16 72 8 25 14 58 11 74 l-4 28 -2 -31z"/>
<path d="M940 977 c19 -20 40 -49 46 -65 10 -23 13 -24 13 -7 1 13 -18 39 -46
65 -38 36 -41 37 -13 7z"/>
<path d="M1407 964 c5 -13 1 -15 -18 -9 -18 5 -21 4 -9 -4 12 -9 11 -11 -7
-11 -12 0 -25 -5 -28 -10 -4 -7 2 -9 17 -5 16 4 27 0 36 -15 8 -13 8 -20 1
-20 -5 0 -8 -4 -4 -9 3 -6 -5 -20 -17 -32 l-23 -22 28 7 c26 6 28 5 22 -15 -9
-29 16 -21 30 9 5 12 19 25 30 29 18 6 18 7 -6 15 -23 8 -26 12 -20 41 5 23
12 31 24 29 9 -2 17 2 17 8 0 5 -5 10 -11 10 -5 0 -7 5 -4 10 3 6 -1 10 -9 10
-9 0 -16 -5 -16 -12 0 -9 -3 -9 -12 0 -17 17 -28 15 -21 -4z"/>
<path d="M1530 2070 c0 -5 7 -10 15 -10 8 0 15 5 15 10 0 6 -7 10 -15 10 -8 0
-15 -4 -15 -10z"/>
<path d="M596 1964 c-30 -29 -14 -27 34 6 13 8 13 10 -2 10 -9 0 -24 -7 -32
-16z"/>
<path d="M1723 1960 c2 -8 12 -16 23 -17 13 -2 15 -1 4 4 -8 3 -19 11 -23 17
-6 7 -7 6 -4 -4z"/>
<path d="M630 1940 c-18 -12 -2 -12 25 0 13 6 15 9 5 9 -8 0 -22 -4 -30 -9z"/>
<path d="M585 1909 c-11 -16 -1 -19 13 -3 7 8 8 14 3 14 -5 0 -13 -5 -16 -11z"/>
<path d="M1880 1872 c0 -5 9 -18 20 -30 25 -26 49 -30 29 -5 -32 41 -49 53
-49 35z"/>
<path d="M280 756 c0 -9 5 -16 10 -16 6 0 10 4 10 9 0 6 -4 13 -10 16 -5 3
-10 -1 -10 -9z"/>
<path d="M235 731 c-3 -5 -1 -12 5 -16 5 -3 10 1 10 9 0 18 -6 21 -15 7z"/>
<path d="M706 351 c-7 -10 52 -26 61 -17 4 3 -3 6 -15 6 -12 0 -22 5 -22 10 0
13 -17 13 -24 1z"/>
<path d="M678 163 c7 -3 16 -2 19 1 4 3 -2 6 -13 5 -11 0 -14 -3 -6 -6z"/>
<path d="M717 155 c-3 -7 6 -18 19 -24 38 -17 52 -14 50 12 -1 17 -7 22 -33
24 -18 1 -34 -4 -36 -12z"/>
</g>
</svg>
