<svg width="21" height="22" viewBox="0 0 21 22" fill="none" xmlns="http://www.w3.org/2000/svg">
<path d="M9.45825 5.84163H11.5416V7.92497H9.45825V5.84163ZM9.45825 10.0083H11.5416V16.2583H9.45825V10.0083ZM10.4999 0.633301C4.74992 0.633301 0.083252 5.29997 0.083252 11.05C0.083252 16.8 4.74992 21.4666 10.4999 21.4666C16.2499 21.4666 20.9166 16.8 20.9166 11.05C20.9166 5.29997 16.2499 0.633301 10.4999 0.633301ZM10.4999 19.3833C5.90617 19.3833 2.16659 15.6437 2.16659 11.05C2.16659 6.45622 5.90617 2.71663 10.4999 2.71663C15.0937 2.71663 18.8333 6.45622 18.8333 11.05C18.8333 15.6437 15.0937 19.3833 10.4999 19.3833Z" fill="#1D182C"/>
</svg>
