<svg width="19" height="21" viewBox="0 0 19 21" fill="none" xmlns="http://www.w3.org/2000/svg">
<path d="M5.28837 2.1289L3.92578 0.663702C1.63892 2.53875 0.1334 5.42816 0 8.70693H1.90572C2.04865 5.9917 3.34453 3.61459 5.28837 2.1289ZM17.0943 8.70693H19C18.8571 5.42816 17.3516 2.53875 15.0742 0.663702L13.7212 2.1289C15.6459 3.61459 16.9514 5.9917 17.0943 8.70693ZM15.2172 9.21924C15.2172 6.07367 13.6545 3.44041 10.9293 2.74367V2.04693C10.9293 1.1965 10.2909 0.51001 9.5 0.51001C8.70913 0.51001 8.07071 1.1965 8.07071 2.04693V2.74367C5.33601 3.44041 3.78285 6.06343 3.78285 9.21924V14.3423L1.87713 16.3915V17.4162H17.1229V16.3915L15.2172 14.3423V9.21924ZM9.5 20.49C9.6334 20.49 9.75727 20.4798 9.88114 20.449C10.5005 20.3056 11.0055 19.8547 11.2533 19.24C11.3485 18.9941 11.3962 18.7277 11.3962 18.4408H7.58475C7.59428 19.5679 8.44233 20.49 9.5 20.49Z" fill="#1D182C"/>
</svg>
