<svg width="17" height="23" viewBox="0 0 17 23" fill="none" xmlns="http://www.w3.org/2000/svg">
<path d="M8.5 22.6C9.66875 22.6 10.625 21.5754 10.625 20.3231H6.375C6.375 21.5754 7.33125 22.6 8.5 22.6ZM14.875 15.7693V10.0769C14.875 6.58187 13.1431 3.65602 10.0938 2.88187V2.10772C10.0938 1.16279 9.38188 0.400024 8.5 0.400024C7.61812 0.400024 6.90625 1.16279 6.90625 2.10772V2.88187C3.8675 3.65602 2.125 6.57049 2.125 10.0769V15.7693L0 18.0462V19.1846H17V18.0462L14.875 15.7693ZM12.75 16.9077H4.25V10.0769C4.25 7.25356 5.85437 4.95387 8.5 4.95387C11.1456 4.95387 12.75 7.25356 12.75 10.0769V16.9077Z" fill="#1D182C"/>
</svg>
