<svg width="109" height="109" viewBox="0 0 109 109" fill="none" xmlns="http://www.w3.org/2000/svg">
<g clip-path="url(#clip0_347_27293)">
<path d="M54.4999 9.08337C29.4299 9.08337 9.08325 29.43 9.08325 54.5C9.08325 79.57 29.4299 99.9167 54.4999 99.9167C79.5699 99.9167 99.9166 79.57 99.9166 54.5C99.9166 29.43 79.5699 9.08337 54.4999 9.08337ZM54.4999 22.7084C62.0391 22.7084 68.1249 28.7942 68.1249 36.3334C68.1249 43.8725 62.0391 49.9584 54.4999 49.9584C46.9608 49.9584 40.8749 43.8725 40.8749 36.3334C40.8749 28.7942 46.9608 22.7084 54.4999 22.7084ZM54.4999 87.2C43.1458 87.2 33.1087 81.3867 27.2499 72.5759C27.3862 63.538 45.4166 58.5875 54.4999 58.5875C63.5378 58.5875 81.6137 63.538 81.7499 72.5759C75.8912 81.3867 65.8541 87.2 54.4999 87.2Z" fill="#181526"/>
<circle cx="92" cy="86" r="14" fill="#F2F2F2"/>
<path d="M104.486 86C104.486 92.8961 98.896 98.4865 91.9999 98.4865C85.1038 98.4865 79.5134 92.8961 79.5134 86C79.5134 79.1039 85.1038 73.5135 91.9999 73.5135C98.896 73.5135 104.486 79.1039 104.486 86Z" fill="#1D182C"/>
<path d="M91.874 87.892C92.9885 87.892 93.892 86.9885 93.892 85.874C93.892 84.7595 92.9885 83.856 91.874 83.856C90.7595 83.856 89.856 84.7595 89.856 85.874C89.856 86.9885 90.7595 87.892 91.874 87.892Z" fill="white"/>
<path d="M89.982 79.5676L88.828 80.8289H86.8289C86.1352 80.8289 85.5676 81.3965 85.5676 82.0901V89.6577C85.5676 90.3514 86.1352 90.919 86.8289 90.919H96.919C97.6127 90.919 98.1802 90.3514 98.1802 89.6577V82.0901C98.1802 81.3965 97.6127 80.8289 96.919 80.8289H94.9199L93.7658 79.5676H89.982ZM91.8739 89.0271C90.1334 89.0271 88.7208 87.6145 88.7208 85.8739C88.7208 84.1334 90.1334 82.7208 91.8739 82.7208C93.6145 82.7208 95.0271 84.1334 95.0271 85.8739C95.0271 87.6145 93.6145 89.0271 91.8739 89.0271Z" fill="white"/>
</g>
<defs>
<clipPath id="clip0_347_27293">
<rect width="109" height="109" fill="white"/>
</clipPath>
</defs>
</svg>
