<svg width="32" height="34" viewBox="0 0 32 34" fill="none" xmlns="http://www.w3.org/2000/svg">
<path d="M22.8702 21.3836H21.4248L20.9125 20.8588C22.7055 18.6427 23.785 15.7656 23.785 12.6358C23.785 5.65695 18.4608 0 11.8925 0C5.32419 0 0 5.65695 0 12.6358C0 19.6146 5.32419 25.2716 11.8925 25.2716C14.8382 25.2716 17.546 24.1246 19.6318 22.2196L20.1258 22.7639V24.2996L29.2739 34L32 31.1035L22.8702 21.3836ZM11.8925 21.3836C7.33676 21.3836 3.65923 17.4763 3.65923 12.6358C3.65923 7.79531 7.33676 3.88794 11.8925 3.88794C16.4483 3.88794 20.1258 7.79531 20.1258 12.6358C20.1258 17.4763 16.4483 21.3836 11.8925 21.3836Z" fill="#F1F1F1"/>
</svg>
